# xmcd CD database file
#
# Track frame offsets:
#	150
#	13941
#	33041
#	45367
#	57132
#	70042
#	71644
#	87824
#	103497
#	109371
#	125247
#	132900
#
# Disc length: 2180 seconds
#
# Revision: 2
# Processed by: cddbd v1.5.1PL2 Copyright (c) Steve Scherf et al.
# Submitted via: CDex 1.51
#
DISCID=a808820c
DTITLE=Toto Bona Lokua - Toto Bona Lokua
DYEAR=2004
DGENRE=Jazz, World Fusion
TTITLE0=Ghana Blues
TTITLE1=Kwalelo
TTITLE2=Lamuka
TTITLE3=L'Endormie
TTITLE4=Flûtes
TTITLE5=The Front
TTITLE6=Na Yé
TTITLE7=Help Me
TTITLE8=Stesuff
TTITLE9=Where I Came From
TTITLE10=Seven Beats
TTITLE11=Lisanga
EXTD=YEAR: 2004
EXTT0=
EXTT1=
EXTT2=
EXTT3=
EXTT4=
EXTT5=
EXTT6=
EXTT7=
EXTT8=
EXTT9=
EXTT10=
EXTT11=
PLAYORDER=
